# xmcd
#
# Track frame offsets:
#	150
#	18958
#	32367
#	56001
#	75961
#	104660
#	121651
#	145164
#	177213
#	200301
#
# Disc length: 2868 seconds
#
# Revision: 1
# Processed by: cddbd v1.5.2PL0 Copyright (c) Steve Scherf et al.
# Submitted via: audiograbber 1.83.01
#
DISCID=730b320a
DTITLE=Marielle Koeman and Jos van Beest - Between You And Me
DYEAR=2004
DGENRE=Jazz
TTITLE0=Too Marvellous
TTITLE1=So Tinha De Ser Com Voce
TTITLE2=My Foolish Heart
TTITLE3=Thou Swell
TTITLE4=Gentle Rain
TTITLE5=The Song Is You
TTITLE6=Que Reste Il De Nos Amours
TTITLE7=You Don't Know What Love Is
TTITLE8=It Might As Well Be Spring
TTITLE9=I Never Went Away
EXTD=
EXTT0=
EXTT1=
EXTT2=
EXTT3=
EXTT4=
EXTT5=
EXTT6=
EXTT7=
EXTT8=
EXTT9=
PLAYORDER=
